<svg xmlns="http://www.w3.org/2000/svg" version="1.1" xmlns:xlink="http://www.w3.org/1999/xlink" xmlns:svgjs="http://svgjs.dev/svgjs" width="2000" height="1247" viewBox="0 0 2000 1247"><g transform="matrix(1,0,0,1,-1.2121212121212466,0.504858299595071)"><svg viewBox="0 0 396 247" data-background-color="#ffffff" preserveAspectRatio="xMidYMid meet" height="1247" width="2000" xmlns="http://www.w3.org/2000/svg" xmlns:xlink="http://www.w3.org/1999/xlink"><g id="tight-bounds" transform="matrix(1,0,0,1,0.2400000000000091,-0.09999999999999432)"><svg viewBox="0 0 395.52 247.2" height="247.2" width="395.52"><g><svg></svg></g><g><svg viewBox="0 0 395.52 247.2" height="247.2" width="395.52"><g transform="matrix(1,0,0,1,75.54432,71.39825337711542)"><svg viewBox="0 0 244.43135999999998 104.40349324576913" height="104.40349324576913" width="244.43135999999998"><g><svg viewBox="0 0 244.43135999999998 104.40349324576913" height="104.40349324576913" width="244.43135999999998"><g><svg viewBox="0 0 244.43135999999998 104.40349324576913" height="104.40349324576913" width="244.43135999999998"><g><svg viewBox="0 0 244.43135999999998 104.40349324576913" height="104.40349324576913" width="244.43135999999998"><g id="textblocktransform"><svg viewBox="0 0 244.43135999999998 104.40349324576913" height="104.40349324576913" width="244.43135999999998" id="textblock"><g><svg viewBox="0 0 244.43135999999998 104.40349324576913" height="104.40349324576913" width="244.43135999999998"><g transform="matrix(1,0,0,1,0,0)"><svg width="244.43135999999998" viewBox="1.15 -31.93 96.64 41.28" height="104.40349324576913" data-palette-color="#ea3c12"><path d="M5.93 0.59Q8.57 0.59 10.24-0.62 11.91-1.83 12.62-3.2L12.62-3.2 12.89-3.2 12.89-2.83Q12.89-2.03 13.27-1.28 13.65-0.54 14.5-0.05 15.36 0.44 16.67 0.44L16.67 0.44Q17.7 0.44 18.87 0.17L18.87 0.17Q19.63 0.02 20-0.02L20-0.02 20.31-2.12 19.09-2.34Q17.94-2.54 17.37-2.87 16.8-3.2 16.58-3.82 16.36-4.44 16.36-5.62L16.36-5.62 16.36-14.48Q16.36-18.38 14.95-20.18 13.55-21.97 10.33-21.97L10.33-21.97Q8.62-21.97 6.64-21.26 4.66-20.56 3.32-19.4 1.98-18.24 1.98-16.97L1.98-16.97Q1.98-15.38 2.95-14.92 3.93-14.45 5.37-14.45L5.37-14.45Q5.59-16.92 5.75-17.85 5.91-18.77 6.42-19.24 6.93-19.7 8.08-19.7L8.08-19.7Q10.4-19.7 11.4-17.86 12.4-16.02 12.4-13.18L12.4-13.18 12.4-11.84Q8.59-11.57 6.07-10.44 3.54-9.3 2.34-7.64 1.15-5.98 1.15-4.1L1.15-4.1Q1.15-2.66 1.79-1.6 2.44-0.54 3.54 0.02 4.64 0.59 5.93 0.59L5.93 0.59ZM12.4-10.45L12.4-4.59Q11.67-3.78 10.5-3.1 9.33-2.42 8.15-2.42L8.15-2.42Q7.3-2.42 6.68-2.86 6.05-3.3 5.74-3.96 5.42-4.61 5.42-5.25L5.42-5.25Q5.42-7.13 7.01-8.41 8.59-9.69 12.4-10.45L12.4-10.45ZM32.49 0L32.83-1.93 29.2-2.78 29.2-16.48Q30.1-17.48 31.37-18.03 32.64-18.58 34.01-18.58L34.01-18.58Q35.94-18.58 37.09-17.47 38.25-16.36 38.25-14.09L38.25-14.09 38.25-2.78 34.89-1.78 34.64 0 45.6 0 45.85-1.93 42.33-2.78 42.33-15.04Q42.33-18.33 40.82-20.14 39.3-21.95 36.45-21.95L36.45-21.95Q34.3-21.95 32.39-20.85 30.49-19.75 29.1-18.09L29.1-18.09 28.85-18.09 29.27-21.22 28.85-21.68 21.58-20.73 21.34-18.87 25.1-17.6 25.1-2.78 21.41-1.78 21.16 0 32.49 0ZM52.53-25.95Q53.34-25.95 54.02-26.37 54.71-26.78 55.11-27.49 55.51-28.2 55.51-29L55.51-29Q55.51-30.2 54.65-31.07 53.78-31.93 52.56-31.93L52.56-31.93Q51.31-31.93 50.42-31.09 49.53-30.25 49.53-29.03L49.53-29.03Q49.53-28.22 49.95-27.51 50.36-26.81 51.04-26.38 51.73-25.95 52.53-25.95L52.53-25.95ZM46.5 9.35L47.63 8.76Q50.87 6.93 52.85 3.99 54.83 1.05 54.83-3.69L54.83-3.69 54.83-21.04 54.22-21.66 47.41-21.14 47.04-19.19 50.7-17.85 50.7-4.2Q50.7-1.12 49.95 1.07 49.19 3.27 48.03 4.65 46.87 6.03 45.31 7.2L45.31 7.2 46.5 9.35ZM68.74 0.66Q71.57 0.66 73.92-0.78 76.26-2.22 77.62-4.83 78.97-7.45 78.97-10.77L78.97-10.77Q78.97-14.11 77.81-16.66 76.65-19.21 74.47-20.63 72.28-22.05 69.33-22.05L69.33-22.05Q66.55-22.05 64.12-20.65 61.69-19.26 60.2-16.61 58.71-13.96 58.71-10.4L58.71-10.4Q58.71-7.23 59.89-4.72 61.08-2.22 63.33-0.78 65.59 0.66 68.74 0.66L68.74 0.66ZM68.3-19.48Q70.48-19.48 71.9-17.88 73.33-16.28 73.98-13.84 74.63-11.4 74.63-8.76L74.63-8.76Q74.63-6.96 74.06-5.35 73.5-3.74 72.36-2.72 71.21-1.71 69.57-1.71L69.57-1.71Q67.3-1.71 65.84-3.2 64.37-4.69 63.71-7.06 63.05-9.42 63.05-12.13L63.05-12.13Q63.05-14.14 63.62-15.81 64.18-17.48 65.36-18.48 66.55-19.48 68.3-19.48L68.3-19.48ZM94.69 0L94.94-2.12 89.25-2.95 89.25-12.3Q89.49-14.04 90.21-15.23 90.93-16.43 91.81-17.03 92.69-17.63 93.42-17.63L93.42-17.63Q94.13-17.63 94.91-17.37 95.69-17.11 96.4-16.67L96.4-16.67Q97.79-17.85 97.79-19.38L97.79-19.38Q97.79-20.48 97.04-21.3 96.28-22.12 95.08-22.12L95.08-22.12Q93.98-22.12 92.86-21.37 91.74-20.63 90.74-19.14 89.74-17.65 89.1-15.53L89.1-15.53 88.64-15.53 89.13-21.14 88.56-21.73 81.56-20.83 81.22-18.97 85.2-17.77 85.2-2.78 81.46-1.81 81.22 0 94.69 0Z" opacity="1" transform="matrix(1,0,0,1,0,0)" fill="#ea3c12" class="wordmark-text-0" data-fill-palette-color="primary" id="text-0"></path></svg></g></svg></g></svg></g></svg></g></svg></g></svg></g></svg></g><g><path d="M0 123.6c0-68.262 55.338-123.6 123.6-123.6 44.615 0 83.709 23.639 105.441 59.075l-5.565 0c-21.181-32.717-58-54.367-99.876-54.367-65.662 0-118.892 53.23-118.892 118.892 0 65.662 53.23 118.892 118.892 118.892 41.876 0 78.696-21.65 99.876-54.367h5.565c-21.732 35.436-60.826 59.075-105.441 59.075-68.262 0-123.6-55.338-123.6-123.6z" fill="#ea3c12" stroke="transparent" data-fill-palette-color="tertiary"></path></g></svg></g><defs></defs></svg><rect width="395.52" height="247.2" fill="none" stroke="none" visibility="hidden"></rect></g></svg></g></svg>